<svg
                xmlns="http://www.w3.org/2000/svg"
                width="50"
                height="50"
                viewBox="0 0 69 69"
                fill="none"
              >
                <path
                  d="M64.4 38.027H9.2V12.2161C9.19733 11.2441 9.38797 10.2812 9.76088 9.38316C10.1338 8.48513 10.6816 7.6698 11.3725 6.98438L11.43 6.92702C12.5128 5.84847 13.903 5.1297 15.4107 4.86889C16.9184 4.60809 18.4701 4.81796 19.8537 5.46985C18.547 7.63709 18.0039 10.1778 18.3106 12.6883C18.6174 15.1987 19.7565 17.5349 21.5468 19.3256L23.121 20.8959L20.2235 23.7864L23.476 27.0308L26.3735 24.1404L42.4288 8.12522L45.3264 5.23483L42.0738 1.99026L39.176 4.88065L37.6018 3.31034C35.7171 1.43551 33.2326 0.279802 30.5813 0.0445998C27.9301 -0.190602 25.2801 0.509618 23.0933 2.02324C20.7873 0.57054 18.0545 -0.056602 15.3439 0.24484C12.6334 0.546282 10.1062 1.75838 8.17751 3.68202L8.12001 3.73938C7.00054 4.84996 6.11302 6.17099 5.50881 7.62602C4.9046 9.08105 4.5957 10.6412 4.6 12.2161V38.027H0V42.6156H4.6V47.0177C4.5999 47.3876 4.6597 47.7551 4.7771 48.106L9.05625 60.911C9.28461 61.5966 9.72371 62.1929 10.3112 62.6154C10.8987 63.0378 11.6047 63.2648 12.3289 63.2643H14.1832L12.5062 69H17.2979L18.975 63.2643H48.8894L50.6144 69H55.4156L53.6906 63.2643H56.6706C57.3949 63.265 58.101 63.038 58.6886 62.6155C59.2762 62.1931 59.7154 61.5967 59.9437 60.911L64.2226 48.106C64.34 47.7551 64.3999 47.3876 64.4 47.0177V42.6156H69V38.027H64.4ZM24.7997 6.55491C26.067 5.29351 27.7842 4.58509 29.5745 4.58509C31.3648 4.58509 33.0819 5.29351 34.3492 6.55491L35.9231 8.12522L26.374 17.6507L24.7997 16.0807C23.5353 14.8165 22.8252 13.1036 22.8252 11.3178C22.8252 9.53199 23.5353 7.8191 24.7997 6.55491ZM59.8 46.8313L55.8423 58.6757H13.1577L9.2 46.8313V42.6156H59.8V46.8313Z"
                  fill="white"
                />
              </svg>