 <svg
                xmlns="http://www.w3.org/2000/svg"
                width="50"
                height="50"
                viewBox="0 0 68 73"
                fill="none"
              >
                <path
                  d="M65.5085 4.59739C64.4025 3.16201 62.9795 2.00046 61.35 1.20309C59.7205 0.405722 57.9286 -0.00596066 56.1136 6.52089e-05H54.2257L45.6867 32.85H0V37.7167C0 44.7858 2.83862 51.119 7.99268 55.5495C12.8695 59.7414 19.5617 62.05 26.8369 62.05H32.6502L31.4303 73H62.2129V35.5936L67.6125 14.8213C68.0738 13.0706 68.124 11.2373 67.7591 9.464C67.3941 7.69075 66.624 6.02536 65.5085 4.59739ZM57.3335 68.1333H36.8819L38.1017 57.1833H26.8369C13.9087 57.1833 4.87944 49.1783 4.87944 37.7167H57.3335V68.1333ZM62.8892 13.6L57.8853 32.85H50.7275L57.9399 5.10459C59.7198 5.58601 61.2377 6.74791 62.1642 8.33827C63.0908 9.92863 63.3514 11.8192 62.8895 13.6H62.8892Z"
                  fill="white"
                />
              </svg>