 <svg
                xmlns="http://www.w3.org/2000/svg"
                width="50"
                height="50"
                viewBox="0 0 63 68"
                fill="none"
              >
                <path
                  d="M42.0917 0.209163C41.5032 -0.0523706 40.835 -0.0693031 40.234 0.16209C39.6331 0.393483 39.1486 0.854247 38.8872 1.44302C38.6258 2.03179 38.6089 2.70035 38.8401 3.3016C39.0714 3.90286 39.5319 4.38757 40.1204 4.64911C40.1593 4.66854 40.6691 4.90656 41.4945 5.39233C46.4532 8.34394 50.6061 12.4756 53.5842 17.42C58.5366 25.7218 58.1773 34.5288 58.1093 36.1902L58.0996 36.4331C58.099 37.0772 58.3541 37.6953 58.8089 38.1512C59.2637 38.6072 59.881 38.8637 60.5248 38.8643C61.1687 38.865 61.7864 38.6097 62.2421 38.1547C62.6979 37.6996 62.9543 37.0821 62.9549 36.4379V36.4574L62.9598 36.3311C63.0665 34.0059 62.9608 31.6759 62.6442 29.37C62.1101 25.3478 60.8234 20.0723 57.7597 14.9329C51.6906 4.77055 42.6549 0.456906 42.0917 0.214021V0.209163ZM42.5287 12.6206C42.2669 12.4265 41.9687 12.2872 41.6519 12.2108C41.3351 12.1345 41.0063 12.1228 40.6848 12.1763C40.3634 12.2298 40.0561 12.3475 39.7811 12.5224C39.5061 12.6973 39.2692 12.9257 39.0843 13.1942C38.8995 13.4626 38.7705 13.7656 38.7051 14.0849C38.6398 14.4043 38.6394 14.7336 38.7039 15.0531C38.7684 15.3726 38.8965 15.6759 39.0807 15.9448C39.2648 16.2138 39.5012 16.4429 39.7757 16.6185C42.0417 18.13 43.9087 20.1674 45.2174 22.5569C46.5261 24.9465 47.2378 27.6173 47.2917 30.3415V30.3609C47.2917 31.0051 47.5475 31.6229 48.0027 32.0784C48.458 32.5339 49.0755 32.7898 49.7194 32.7898C50.3632 32.7898 50.9807 32.5339 51.436 32.0784C51.8912 31.6229 52.147 31.0051 52.147 30.3609V30.0549C52.1208 29.0647 52.0235 28.0776 51.8557 27.1014C51.4491 24.7339 50.6638 22.4473 49.53 20.3298C48.3675 18.1885 46.8562 16.2561 45.0583 14.6123C43.6697 13.3395 42.5141 12.6109 42.5287 12.6206ZM2.44816 47.1492C-0.0288703 42.6929 -0.655807 37.441 0.702588 32.5264C2.06098 27.6118 5.29584 23.4283 9.70937 20.8785C14.1229 18.3286 19.3614 17.6167 24.2948 18.8963C29.2283 20.1758 33.4613 23.3443 36.0808 27.7183L40.0622 34.6163L49.3164 41.3539C49.6431 41.592 49.9053 41.9079 50.0791 42.2731C50.2529 42.6382 50.3328 43.041 50.3116 43.4448C50.2903 43.8487 50.1687 44.2409 49.9576 44.5857C49.7465 44.9306 49.4526 45.2173 49.1027 45.4198L36.8188 52.5169L36.8334 52.5266L23.5396 60.2067V60.1872L11.2557 67.2795C10.9056 67.4815 10.5106 67.5929 10.1065 67.6036C9.70251 67.6142 9.30221 67.5238 8.94197 67.3404C8.58172 67.1571 8.27294 66.8866 8.04362 66.5536C7.81429 66.2206 7.6717 65.8356 7.62877 65.4336L6.42951 54.052L2.44816 47.154V47.1492ZM6.65285 44.7203L10.8915 52.07C11.0607 52.3638 11.1666 52.6898 11.2023 53.027L12.0665 61.2074L43.4415 43.0833L36.7897 38.245C36.5167 38.0451 36.2885 37.7902 36.1197 37.4969L31.8761 30.1521C29.9073 26.8803 26.7334 24.5125 23.0375 23.5581C19.3415 22.6037 15.4187 23.139 12.1132 25.0488C8.80765 26.9586 6.38353 30.0903 5.36236 33.7701C4.34119 37.4499 4.80459 41.3837 6.65285 44.7252V44.7203ZM25.336 64.7826C26.6028 66.3801 28.4012 67.4687 30.4034 67.85C32.4055 68.2313 34.478 67.8799 36.2427 66.8599C38.0075 65.8399 39.347 64.2191 40.017 62.2933C40.6869 60.3675 40.6426 58.265 39.8922 56.3691L25.336 64.7778V64.7826Z"
                  fill="white"
                />
              </svg>