 <svg
              xmlns="http://www.w3.org/2000/svg"
              width="27"
              height="26"
              viewBox="0 0 27 26"
              fill="none"
            >
              <path
                d="M10.5 13.4444H1.5C1.35547 13.4444 1.2241 13.3888 1.13298 13.3011C1.04314 13.2145 1 13.1054 1 13V1.44444C1 1.33901 1.04314 1.2299 1.13298 1.14339C1.2241 1.05564 1.35547 1 1.5 1H10.5C10.6445 1 10.7759 1.05564 10.867 1.14339C10.9569 1.2299 11 1.33901 11 1.44444V13C11 13.1054 10.9569 13.2145 10.867 13.3011C10.7759 13.3888 10.6445 13.4444 10.5 13.4444ZM1.13298 24.8566C1.04314 24.7701 1 24.661 1 24.5556V18.7778C1 18.6723 1.04314 18.5632 1.13298 18.4767C1.2241 18.389 1.35547 18.3333 1.5 18.3333H10.5C10.6445 18.3333 10.7759 18.389 10.867 18.4767C10.9569 18.5632 11 18.6723 11 18.7778V24.5556C11 24.661 10.9569 24.7701 10.867 24.8566C10.7759 24.9444 10.6445 25 10.5 25H1.5C1.35547 25 1.2241 24.9444 1.13298 24.8566ZM16.133 24.8566C16.0431 24.7701 16 24.661 16 24.5556V14.4444C16 14.339 16.0431 14.2299 16.133 14.1434C16.2241 14.0556 16.3555 14 16.5 14H25.5C25.6445 14 25.7759 14.0556 25.867 14.1434C25.9569 14.2299 26 14.339 26 14.4444V24.5556C26 24.661 25.9569 24.7701 25.867 24.8566C25.7759 24.9444 25.6445 25 25.5 25H16.5C16.3555 25 16.2241 24.9444 16.133 24.8566ZM25.5 9.11111H16.5C16.3555 9.11111 16.2241 9.05547 16.133 8.96772C16.0431 8.88121 16 8.7721 16 8.66667V1.44444C16 1.33901 16.0431 1.2299 16.133 1.14339C16.2241 1.05564 16.3555 1 16.5 1H25.5C25.6445 1 25.7759 1.05564 25.867 1.14339C25.9569 1.2299 26 1.33901 26 1.44444V8.66667C26 8.77211 25.9569 8.88121 25.867 8.96772C25.7759 9.05547 25.6445 9.11111 25.5 9.11111Z"
                stroke="#623CE7"
                stroke-width="2"
              />
            </svg>