 <svg
              xmlns="http://www.w3.org/2000/svg"
              width="35"
              height="35"
              viewBox="0 0 50 50"
              fill="none"
            >
              <rect width="50" height="50" rx="7" fill="#623CE7" />
              <path
                d="M22.1141 13C27.145 13 31.2281 17.0831 31.2281 22.1141C31.2281 27.145 27.145 31.2281 22.1141 31.2281C17.0831 31.2281 13 27.145 13 22.1141C13 17.0831 17.0831 13 22.1141 13ZM22.1141 29.2028C26.0301 29.2028 29.2028 26.0301 29.2028 22.1141C29.2028 18.197 26.0301 15.0253 22.1141 15.0253C18.197 15.0253 15.0253 18.197 15.0253 22.1141C15.0253 26.0301 18.197 29.2028 22.1141 29.2028ZM30.7066 29.2747L37 35.5671L35.5671 37L29.2747 30.7066L30.7066 29.2747Z"
                fill="#FBFBFB"
              />
            </svg>